PathFileType	4	(X/Y/Z)	E:\Qualisys_Data\Carbon_Farble_Plate\Data\Amateur_Runner\S1\T1\S1T1V12_c3d.trc
DataRate	CameraRate	NumFrames	NumMarkers	Units	OrigDataRate	OrigDataStartFrame	OrigNumFrames
200.000000	200.000000	4	39	mm	200.000000	78	312
Frame#	Time	LSHO			RSHO			LICST			RICST			LASIS			LHEEL			RASIS			LTROC			RTROC			SACR			LTH1			LSK4			LTH2			LTH3			RHM5			LSK2			LTH4			RTH1			LTOE			RTH2			RTH3			RTH4			LLEP			RLEP			LSK1			LSK3			RSK1			LHM5			RSK2			LFT1			RSK3			RSK4			LLME			RLME			RTOE			RHEEL			RFT1			RFT2			LFT2			
		X1	Y1	Z1	X2	Y2	Z2	X3	Y3	Z3	X4	Y4	Z4	X5	Y5	Z5	X6	Y6	Z6	X7	Y7	Z7	X8	Y8	Z8	X9	Y9	Z9	X10	Y10	Z10	X11	Y11	Z11	X12	Y12	Z12	X13	Y13	Z13	X14	Y14	Z14	X15	Y15	Z15	X16	Y16	Z16	X17	Y17	Z17	X18	Y18	Z18	X19	Y19	Z19	X20	Y20	Z20	X21	Y21	Z21	X22	Y22	Z22	X23	Y23	Z23	X24	Y24	Z24	X25	Y25	Z25	X26	Y26	Z26	X27	Y27	Z27	X28	Y28	Z28	X29	Y29	Z29	X30	Y30	Z30	X31	Y31	Z31	X32	Y32	Z32	X33	Y33	Z33	X34	Y34	Z34	X35	Y35	Z35	X36	Y36	Z36	X37	Y37	Z37	X38	Y38	Z38	X39	Y39	Z39	

79	0.39	-1138.961547851562	1562.30126953125	-483.8801879882812	-1069.825317382812	1552.30126953125	-170.3347930908203	-1118.896728515625	1085.970458984375	-454.2075805664062	-1108.6552734375	1103.892944335938	-160.73828125	-1073.645385742188	1046.66552734375	-428.2689819335938	-974.6392822265624	107.0508270263672	-354.920166015625	-1075.494995117188	1052.285034179688	-167.2947998046875	-1168.556030273438	961.9647827148438	-475.6035766601562	-1201.286254882812	981.6708374023438	-135.2205505371094	-1231.448608398438	1115.554931640625	-302.4943542480469	-1012.944641113281	836.50732421875	-441.3497314453125	-1015.371215820312	274.9330444335938	-387.88427734375	-1087.21533203125	809.3878173828125	-477.4749450683594	-986.31787109375	736.990234375	-426.2159423828125	-1589.548217773438	148.5332489013672	-177.6721343994141	-1032.2109375	369.7964172363281	-426.8479309082031	-1066.929321289062	713.62451171875	-452.7596435546875	-1113.611938476562	823.0156860351562	-160.1099700927734	-734.3594360351562	197.5895690917969	-374.7065124511719	-1185.023193359375	843.0262451171875	-132.7481231689453	-1144.607788085938	727.3734130859375	-172.3256072998047	-1218.41015625	750.1679077148438	-149.6684875488281	-991.5228271484376	581.6967163085938	-415.3956909179688	-1254.808837890625	578.880126953125	-186.7371826171875	-948.9188232421876	379.8919982910156	-427.2603759765625	-940.7721557617188	279.3991088867188	-420.5417785644531	-1394.163818359375	446.7987670898438	-167.6798706054688	-789.0924072265625	150.8877105712891	-428.2869873046875	-1450.870849609375	504.5700378417969	-183.9338531494141	-952.8849487304688	91.23463439941406	-326.6072692871094	-1464.783325195312	373.9683837890625	-178.1933288574219	-1518.5947265625	431.461669921875	-204.6402893066406	-940.4970092773438	147.2752227783203	-408.2364501953125	-1583.022583007812	301.3014831542969	-182.2318115234375	-1529.803955078125	106.9831771850586	-251.8696594238281	-1641.813598632812	333.6188659667969	-225.7324676513672	-1658.520385742188	315.5228881835938	-261.3196411132812	-1665.353149414062	316.3754577636719	-203.9382171630859	-959.2570190429688	79.93897247314453	-377.4324340820312
80	0.395	-1122.35302734375	1560.22021484375	-484.85205078125	-1053.61572265625	1551.381713867188	-171.1745758056641	-1102.111572265625	1084.276245117188	-454.1454467773438	-1093.18701171875	1102.989868164062	-160.8209991455078	-1057.311889648438	1045.597412109375	-428.079345703125	-955.9110717773438	105.4592208862305	-353.9443359375	-1059.448852539062	1051.62646484375	-167.3950347900391	-1152.66015625	959.7110595703124	-475.1652221679688	-1184.60205078125	980.4181518554688	-134.5092163085938	-1215.184326171875	1113.985961914062	-302.1686706542969	-998.758544921875	832.004638671875	-441.5768127441406	-997.9730224609376	272.9344482421875	-387.2146606445312	-1073.804443359375	806.2298583984375	-477.6210327148438	-973.5902709960938	732.4483642578125	-425.9649658203125	-1577.597412109375	154.8679656982422	-177.0439758300781	-1015.74072265625	367.453857421875	-425.8500366210938	-1054.020263671875	710.00439453125	-453.794921875	-1095.48828125	821.9578857421875	-161.3741760253906	-716.6795043945312	199.0733184814453	-372.7539367675781	-1166.903564453125	840.4810180664062	-133.0971832275391	-1125.499145507812	725.8193969726562	-173.4388427734375	-1199.188354492188	747.3622436523438	-149.2161407470703	-976.914794921875	580.1884765625	-415.1520385742188	-1234.443969726562	576.4900512695312	-186.3066864013672	-932.7799682617188	378.7076721191406	-426.1830444335938	-923.174072265625	277.9718017578125	-419.6320190429688	-1378.579467773438	447.580810546875	-167.5066223144531	-770.6676025390625	151.5789337158203	-427.0765991210938	-1432.636962890625	506.6997985839844	-183.3943481445312	-934.5203247070312	88.89755249023438	-326.5895080566406	-1449.789672851562	377.1455078125	-176.7181091308594	-1501.91748046875	435.4515686035156	-203.7202606201172	-921.9168701171876	145.92919921875	-407.296142578125	-1568.206298828125	307.4644470214844	-181.813232421875	-1518.817504882812	113.2110137939453	-251.9690093994141	-1628.367309570312	341.6869201660156	-224.1305389404297	-1645.818481445312	322.5138549804688	-260.3443908691406	-1651.2119140625	323.4307861328125	-202.0182952880859	-940.1717529296876	78.50123596191406	-376.6661071777344
81	0.4	-1105.387817382812	1557.806518554688	-486.22607421875	-1037.370239257812	1550.219360351562	-172.2474212646484	-1085.904663085938	1082.458618164062	-453.8262023925781	-1077.872192382812	1101.63818359375	-160.4978179931641	-1041.178588867188	1043.776489257812	-427.9418640136719	-938.32666015625	103.4969177246094	-351.9034729003906	-1043.463745117188	1050.553833007812	-167.3817138671875	-1136.556640625	957.4512939453124	-474.8706665039062	-1167.79833984375	978.4270629882812	-133.5460205078125	-1199.405639648438	1111.707153320312	-302.5667419433594	-984.4118041992188	827.8187255859375	-441.6091003417969	-981.0988159179688	270.7506713867188	-386.3235778808594	-1059.22607421875	803.1373901367188	-478.2810974121094	-962.1358032226562	727.5591430664062	-426.0857238769531	-1566.1435546875	160.4740295410156	-177.5847320556641	-999.247802734375	365.4740905761719	-424.6909790039062	-1041.227783203125	706.1569213867188	-455.5665893554688	-1077.349365234375	820.0038452148438	-162.5913391113281	-699.8648071289062	199.0597839355469	-371.3457641601562	-1148.500610351562	838.0072631835938	-133.5130920410156	-1105.993408203125	724.0166625976562	-174.5357666015625	-1179.541381835938	744.439453125	-148.9944305419922	-962.3091430664062	577.7223510742188	-413.7162170410156	-1214.065063476562	573.2511596679688	-186.133056640625	-916.3751220703124	376.7822570800781	-424.5206604003906	-906.5616455078124	276.2734375	-418.1621398925781	-1361.3369140625	448.1213684082031	-167.1207275390625	-753.3158569335938	151.3995056152344	-425.6436767578125	-1413.873413085938	508.8043518066406	-182.7375030517578	-916.7776489257812	87.46409606933594	-324.8700561523438	-1434.388549804688	379.8650512695312	-176.2766265869141	-1485.025756835938	439.1388854980469	-203.169921875	-904.7620849609376	143.7200317382812	-405.7718200683594	-1556.238159179688	312.3296813964844	-180.5000457763672	-1507.583862304688	118.8734664916992	-251.8605499267578	-1614.140380859375	348.8534545898438	-222.2765045166016	-1632.031982421875	329.536865234375	-258.7093200683594	-1637.125610351562	330.2598571777344	-199.8385009765625	-921.790283203125	75.55370330810547	-374.8884887695312
82	0.405	-1088.691040039062	1555.160400390625	-487.2926330566406	-1021.10693359375	1548.692138671875	-173.1266479492188	-1067.437622070312	1080.936767578125	-454.2378845214844	-1062.4931640625	1099.844360351562	-160.4715728759766	-1024.51806640625	1042.103393554688	-428.2745971679688	-922.3358764648438	101.5961074829102	-350.594482421875	-1027.65478515625	1049.247802734375	-166.9184722900391	-1121.1142578125	955.0947875976562	-474.7942199707031	-1151.235595703125	976.0277709960938	-132.7124328613281	-1183.889892578125	1109.530029296875	-302.6065673828125	-969.8247680664062	823.98046875	-441.5831298828125	-965.1809692382812	268.6127624511719	-385.5156860351562	-1044.589477539062	800.558349609375	-478.9051208496094	-949.194580078125	723.2926025390625	-427.3190307617188	-1552.700317382812	166.8631744384766	-176.2903442382812	-983.35302734375	363.4473266601562	-423.8409729003906	-1028.080932617188	702.9232788085938	-457.4030151367188	-1059.08056640625	818.3729858398438	-163.3098602294922	-683.965576171875	198.0749053955078	-369.8352966308594	-1130.283081054688	834.9556274414062	-133.3806915283203	-1086.674194335938	721.9571533203125	-175.2387084960938	-1160.01708984375	741.1094360351562	-149.0327606201172	-947.7003173828124	576.0371704101562	-412.6222534179688	-1193.451782226562	569.6312255859375	-186.0324554443359	-900.3193359375	374.7031555175781	-422.8567504882812	-890.3107299804688	274.0298156738281	-416.6972045898438	-1343.830200195312	448.2185668945312	-167.2395782470703	-737.7662963867188	150.1033325195312	-423.8690185546875	-1394.49267578125	510.029541015625	-182.1740570068359	-900.4794921875	85.40696716308594	-323.3930969238281	-1417.725830078125	381.5982360839844	-175.5016784667969	-1468.270629882812	442.718994140625	-202.5842590332031	-888.9186401367188	142.1437377929688	-404.5857238769531	-1541.209350585938	317.5144348144531	-179.8097381591797	-1495.179321289062	123.8578033447266	-251.6126556396484	-1599.954345703125	355.1541748046875	-221.2424163818359	-1618.264770507812	336.3954162597656	-257.3651428222656	-1622.47900390625	337.4877014160156	-198.2058715820312	-905.8585205078124	74.04358673095703	-373.7342224121094
